<svg width="1414" height="237" viewBox="0 0 1414 237" fill="none" xmlns="http://www.w3.org/2000/svg">
<path d="M255.902 57.2H287.302V112H345.102V57.2H376.502V200H345.102V138.4H287.302V200H255.902V57.2ZM452.144 212.8C449.077 221.2 444.81 227.2 439.344 230.8C433.877 234.4 426.277 236.2 416.544 236.2C413.61 236.2 410.677 236.067 407.744 235.8C404.944 235.667 402.077 235.467 399.144 235.2V211.8C401.81 212.067 404.544 212.333 407.344 212.6C410.144 212.867 412.944 212.933 415.744 212.8C419.477 212.4 422.21 210.933 423.944 208.4C425.81 205.867 426.744 203.067 426.744 200C426.744 197.733 426.344 195.6 425.544 193.6L389.344 96.6H419.544L442.944 167.4H443.344L465.944 96.6H495.344L452.144 212.8ZM557.055 181.4C561.721 181.4 565.588 180.467 568.655 178.6C571.855 176.733 574.388 174.333 576.255 171.4C578.255 168.333 579.655 164.8 580.455 160.8C581.255 156.8 581.655 152.733 581.655 148.6C581.655 144.467 581.188 140.4 580.255 136.4C579.455 132.4 578.055 128.867 576.055 125.8C574.055 122.6 571.455 120.067 568.255 118.2C565.188 116.2 561.388 115.2 556.855 115.2C552.188 115.2 548.255 116.2 545.055 118.2C541.988 120.067 539.455 122.533 537.455 125.6C535.588 128.667 534.255 132.2 533.455 136.2C532.655 140.2 532.255 144.333 532.255 148.6C532.255 152.733 532.655 156.8 533.455 160.8C534.388 164.8 535.788 168.333 537.655 171.4C539.655 174.333 542.255 176.733 545.455 178.6C548.655 180.467 552.521 181.4 557.055 181.4ZM504.855 96.6H531.855V109.8H532.255C535.721 104.2 540.121 100.133 545.455 97.6C550.788 95.0667 556.655 93.8 563.055 93.8C571.188 93.8 578.188 95.3333 584.055 98.4C589.921 101.467 594.788 105.533 598.655 110.6C602.521 115.667 605.388 121.6 607.255 128.4C609.121 135.067 610.055 142.067 610.055 149.4C610.055 156.333 609.121 163 607.255 169.4C605.388 175.8 602.521 181.467 598.655 186.4C594.921 191.333 590.188 195.267 584.455 198.2C578.855 201.133 572.255 202.6 564.655 202.6C558.255 202.6 552.321 201.333 546.855 198.8C541.521 196.133 537.121 192.267 533.655 187.2H533.255V236.2H504.855V96.6ZM696.72 137.2C695.387 130 692.987 124.533 689.52 120.8C686.187 117.067 681.054 115.2 674.12 115.2C669.587 115.2 665.787 116 662.72 117.6C659.787 119.067 657.387 120.933 655.52 123.2C653.787 125.467 652.52 127.867 651.72 130.4C651.054 132.933 650.654 135.2 650.52 137.2H696.72ZM650.52 155.2C650.92 164.4 653.254 171.067 657.52 175.2C661.787 179.333 667.92 181.4 675.92 181.4C681.654 181.4 686.587 180 690.72 177.2C694.854 174.267 697.387 171.2 698.32 168H723.32C719.32 180.4 713.187 189.267 704.92 194.6C696.654 199.933 686.654 202.6 674.92 202.6C666.787 202.6 659.454 201.333 652.92 198.8C646.387 196.133 640.854 192.4 636.32 187.6C631.787 182.8 628.254 177.067 625.72 170.4C623.32 163.733 622.12 156.4 622.12 148.4C622.12 140.667 623.387 133.467 625.92 126.8C628.454 120.133 632.054 114.4 636.72 109.6C641.387 104.667 646.92 100.8 653.32 98C659.854 95.2 667.054 93.8 674.92 93.8C683.72 93.8 691.387 95.5333 697.92 99C704.454 102.333 709.787 106.867 713.92 112.6C718.187 118.333 721.254 124.867 723.12 132.2C724.987 139.533 725.654 147.2 725.12 155.2H650.52ZM741.964 96.6H768.964V115.8H769.364C770.697 112.6 772.497 109.667 774.764 107C777.031 104.2 779.631 101.867 782.564 100C785.497 98 788.631 96.4667 791.964 95.4C795.297 94.3333 798.764 93.8 802.364 93.8C804.231 93.8 806.297 94.1333 808.564 94.8V121.2C807.231 120.933 805.631 120.733 803.764 120.6C801.897 120.333 800.097 120.2 798.364 120.2C793.164 120.2 788.764 121.067 785.164 122.8C781.564 124.533 778.631 126.933 776.364 130C774.231 132.933 772.697 136.4 771.764 140.4C770.831 144.4 770.364 148.733 770.364 153.4V200H741.964V96.6Z" fill="#333333"/>
<path d="M936.253 99.4C935.053 93.9333 933.053 89.0667 930.253 84.8C927.586 80.4 924.253 76.7333 920.253 73.8C916.386 70.8667 912.053 68.6667 907.253 67.2C902.586 65.6 897.653 64.8 892.453 64.8C882.986 64.8 874.853 66.6 868.053 70.2C861.253 73.8 855.653 78.6 851.253 84.6C846.986 90.4667 843.786 97.1333 841.653 104.6C839.653 112.067 838.653 119.733 838.653 127.6C838.653 135.333 839.653 143 841.653 150.6C843.786 158.067 846.986 164.8 851.253 170.8C855.653 176.667 861.253 181.4 868.053 185C874.853 188.6 882.986 190.4 892.453 190.4C899.12 190.4 905.12 189.2 910.453 186.8C915.786 184.4 920.386 181.133 924.253 177C928.12 172.867 931.253 168.067 933.653 162.6C936.053 157 937.586 151 938.253 144.6H951.853C950.92 153.4 948.853 161.333 945.653 168.4C942.453 175.467 938.32 181.467 933.253 186.4C928.186 191.333 922.186 195.133 915.253 197.8C908.453 200.467 900.853 201.8 892.453 201.8C881.253 201.8 871.386 199.8 862.853 195.8C854.453 191.667 847.453 186.2 841.853 179.4C836.253 172.6 832.053 164.733 829.253 155.8C826.453 146.867 825.053 137.467 825.053 127.6C825.053 117.733 826.453 108.333 829.253 99.4C832.053 90.4667 836.253 82.6 841.853 75.8C847.453 68.8667 854.453 63.4 862.853 59.4C871.386 55.2667 881.253 53.2 892.453 53.2C899.253 53.2 905.853 54.2 912.253 56.2C918.786 58.2 924.653 61.2 929.853 65.2C935.186 69.0667 939.586 73.8667 943.053 79.6C946.653 85.3333 948.92 91.9333 949.853 99.4H936.253ZM969.073 127.4C969.473 121.4 970.74 116.2 972.873 111.8C975.007 107.4 977.873 103.8 981.473 101C985.207 98.2 989.54 96.1333 994.473 94.8C999.407 93.4667 1004.87 92.8 1010.87 92.8C1015.41 92.8 1019.94 93.2667 1024.47 94.2C1029.01 95 1033.07 96.6 1036.67 99C1040.27 101.4 1043.21 104.8 1045.47 109.2C1047.74 113.467 1048.87 119.067 1048.87 126V180.8C1048.87 185.867 1051.34 188.4 1056.27 188.4C1057.74 188.4 1059.07 188.133 1060.27 187.6V198.2C1058.81 198.467 1057.47 198.667 1056.27 198.8C1055.21 198.933 1053.81 199 1052.07 199C1048.87 199 1046.27 198.6 1044.27 197.8C1042.41 196.867 1040.94 195.6 1039.87 194C1038.81 192.4 1038.07 190.533 1037.67 188.4C1037.41 186.133 1037.27 183.667 1037.27 181H1036.87C1034.61 184.333 1032.27 187.333 1029.87 190C1027.61 192.533 1025.01 194.667 1022.07 196.4C1019.27 198.133 1016.01 199.467 1012.27 200.4C1008.67 201.333 1004.34 201.8 999.273 201.8C994.473 201.8 989.94 201.2 985.673 200C981.54 198.933 977.873 197.2 974.673 194.8C971.607 192.267 969.14 189.133 967.273 185.4C965.54 181.533 964.673 177 964.673 171.8C964.673 164.6 966.273 159 969.473 155C972.673 150.867 976.873 147.733 982.073 145.6C987.407 143.467 993.34 142 999.873 141.2C1006.54 140.267 1013.27 139.4 1020.07 138.6C1022.74 138.333 1025.07 138 1027.07 137.6C1029.07 137.2 1030.74 136.533 1032.07 135.6C1033.41 134.533 1034.41 133.133 1035.07 131.4C1035.87 129.667 1036.27 127.4 1036.27 124.6C1036.27 120.333 1035.54 116.867 1034.07 114.2C1032.74 111.4 1030.81 109.2 1028.27 107.6C1025.87 106 1023.01 104.933 1019.67 104.4C1016.47 103.733 1013.01 103.4 1009.27 103.4C1001.27 103.4 994.74 105.333 989.673 109.2C984.607 112.933 981.94 119 981.673 127.4H969.073ZM1036.27 142.6H1035.87C1035.07 144.067 1033.54 145.133 1031.27 145.8C1029.01 146.467 1027.01 146.933 1025.27 147.2C1019.94 148.133 1014.41 149 1008.67 149.8C1003.07 150.467 997.94 151.533 993.273 153C988.607 154.467 984.74 156.6 981.673 159.4C978.74 162.067 977.273 165.933 977.273 171C977.273 174.2 977.873 177.067 979.073 179.6C980.407 182 982.14 184.133 984.273 186C986.407 187.733 988.873 189.067 991.673 190C994.473 190.933 997.34 191.4 1000.27 191.4C1005.07 191.4 1009.67 190.667 1014.07 189.2C1018.47 187.733 1022.27 185.6 1025.47 182.8C1028.81 180 1031.41 176.6 1033.27 172.6C1035.27 168.6 1036.27 164.067 1036.27 159V142.6ZM1073.98 95.8H1085.58V115.4H1085.98C1088.92 108.2 1093.65 102.667 1100.18 98.8C1106.85 94.8 1114.38 92.8 1122.78 92.8C1130.65 92.8 1137.45 94.2667 1143.18 97.2C1149.05 100.133 1153.92 104.133 1157.78 109.2C1161.65 114.133 1164.52 119.933 1166.38 126.6C1168.25 133.133 1169.18 140.067 1169.18 147.4C1169.18 154.733 1168.25 161.733 1166.38 168.4C1164.52 174.933 1161.65 180.733 1157.78 185.8C1153.92 190.733 1149.05 194.667 1143.18 197.6C1137.45 200.4 1130.65 201.8 1122.78 201.8C1119.05 201.8 1115.32 201.333 1111.58 200.4C1107.85 199.467 1104.38 198.067 1101.18 196.2C1097.98 194.333 1095.12 192 1092.58 189.2C1090.18 186.4 1088.32 183.133 1086.98 179.4H1086.58V237H1073.98V95.8ZM1156.58 147.4C1156.58 142.067 1155.92 136.8 1154.58 131.6C1153.38 126.267 1151.38 121.533 1148.58 117.4C1145.92 113.267 1142.45 109.933 1138.18 107.4C1133.92 104.733 1128.78 103.4 1122.78 103.4C1115.85 103.4 1110.05 104.6 1105.38 107C1100.72 109.4 1096.98 112.6 1094.18 116.6C1091.38 120.6 1089.38 125.267 1088.18 130.6C1087.12 135.933 1086.58 141.533 1086.58 147.4C1086.58 152.733 1087.18 158.067 1088.38 163.4C1089.72 168.6 1091.78 173.267 1094.58 177.4C1097.52 181.533 1101.25 184.933 1105.78 187.6C1110.45 190.133 1116.12 191.4 1122.78 191.4C1128.78 191.4 1133.92 190.133 1138.18 187.6C1142.45 184.933 1145.92 181.533 1148.58 177.4C1151.38 173.267 1153.38 168.6 1154.58 163.4C1155.92 158.067 1156.58 152.733 1156.58 147.4ZM1189.03 56.2H1201.63V76.4H1189.03V56.2ZM1189.03 95.8H1201.63V199H1189.03V95.8ZM1245.74 95.8H1266.74V106.4H1245.74V176C1245.74 180.133 1246.28 183.4 1247.34 185.8C1248.54 188.067 1251.41 189.333 1255.94 189.6C1259.54 189.6 1263.14 189.4 1266.74 189V199.6C1264.88 199.6 1263.01 199.667 1261.14 199.8C1259.28 199.933 1257.41 200 1255.54 200C1247.14 200 1241.28 198.4 1237.94 195.2C1234.61 191.867 1233.01 185.8 1233.14 177V106.4H1215.14V95.8H1233.14V64.8H1245.74V95.8ZM1283.72 127.4C1284.12 121.4 1285.39 116.2 1287.52 111.8C1289.66 107.4 1292.52 103.8 1296.12 101C1299.86 98.2 1304.19 96.1333 1309.12 94.8C1314.06 93.4667 1319.52 92.8 1325.52 92.8C1330.06 92.8 1334.59 93.2667 1339.12 94.2C1343.66 95 1347.72 96.6 1351.32 99C1354.92 101.4 1357.86 104.8 1360.12 109.2C1362.39 113.467 1363.52 119.067 1363.52 126V180.8C1363.52 185.867 1365.99 188.4 1370.92 188.4C1372.39 188.4 1373.72 188.133 1374.92 187.6V198.2C1373.46 198.467 1372.12 198.667 1370.92 198.8C1369.86 198.933 1368.46 199 1366.72 199C1363.52 199 1360.92 198.6 1358.92 197.8C1357.06 196.867 1355.59 195.6 1354.52 194C1353.46 192.4 1352.72 190.533 1352.32 188.4C1352.06 186.133 1351.92 183.667 1351.92 181H1351.52C1349.26 184.333 1346.92 187.333 1344.52 190C1342.26 192.533 1339.66 194.667 1336.72 196.4C1333.92 198.133 1330.66 199.467 1326.92 200.4C1323.32 201.333 1318.99 201.8 1313.92 201.8C1309.12 201.8 1304.59 201.2 1300.32 200C1296.19 198.933 1292.52 197.2 1289.32 194.8C1286.26 192.267 1283.79 189.133 1281.92 185.4C1280.19 181.533 1279.32 177 1279.32 171.8C1279.32 164.6 1280.92 159 1284.12 155C1287.32 150.867 1291.52 147.733 1296.72 145.6C1302.06 143.467 1307.99 142 1314.52 141.2C1321.19 140.267 1327.92 139.4 1334.72 138.6C1337.39 138.333 1339.72 138 1341.72 137.6C1343.72 137.2 1345.39 136.533 1346.72 135.6C1348.06 134.533 1349.06 133.133 1349.72 131.4C1350.52 129.667 1350.92 127.4 1350.92 124.6C1350.92 120.333 1350.19 116.867 1348.72 114.2C1347.39 111.4 1345.46 109.2 1342.92 107.6C1340.52 106 1337.66 104.933 1334.32 104.4C1331.12 103.733 1327.66 103.4 1323.92 103.4C1315.92 103.4 1309.39 105.333 1304.32 109.2C1299.26 112.933 1296.59 119 1296.32 127.4H1283.72ZM1350.92 142.6H1350.52C1349.72 144.067 1348.19 145.133 1345.92 145.8C1343.66 146.467 1341.66 146.933 1339.92 147.2C1334.59 148.133 1329.06 149 1323.32 149.8C1317.72 150.467 1312.59 151.533 1307.92 153C1303.26 154.467 1299.39 156.6 1296.32 159.4C1293.39 162.067 1291.92 165.933 1291.92 171C1291.92 174.2 1292.52 177.067 1293.72 179.6C1295.06 182 1296.79 184.133 1298.92 186C1301.06 187.733 1303.52 189.067 1306.32 190C1309.12 190.933 1311.99 191.4 1314.92 191.4C1319.72 191.4 1324.32 190.667 1328.72 189.2C1333.12 187.733 1336.92 185.6 1340.12 182.8C1343.46 180 1346.06 176.6 1347.92 172.6C1349.92 168.6 1350.92 164.067 1350.92 159V142.6ZM1388.83 56.2H1401.43V199H1388.83V56.2Z" fill="#BEBEBE"/>
<path d="M147.778 0C180.376 18.4723 214.061 29.8816 212.974 59.2199V136.369C212.974 167.337 188.526 172.227 146.691 198.305L147.778 0Z" fill="#F40857"/>
<path d="M74.1709 160.479H138.902V176.238C138.902 188.388 129.052 198.238 116.902 198.238H96.1709C84.0206 198.238 74.1709 188.388 74.1709 176.238V160.479Z" fill="#F40857"/>
<path d="M73.89 39.1191C106.488 57.5914 140.173 69.0008 139.086 98.3391L139.085 160.92C131.485 184.753 77.6908 178.782 73.8877 165.199L73.89 39.1191Z" fill="#F40857"/>
<path d="M0 72.8008C44.7341 93.2404 62.1901 105.603 65.1962 130.934V198.847C7.60622 167.335 0 158.099 0 126.588V72.8008Z" fill="#F40857"/>
</svg>
